<mxfile host="app.diagrams.net" agent="Mozilla/5.0 (Windows NT 10.0; Win64; x64) AppleWebKit/537.36 (KHTML, like Gecko) Chrome/137.0.0.0 Safari/537.36" version="27.1.5">
  <diagram name="PÃ¡gina-1" id="tuK5968inBv1Uc6fx4gn">
    <mxGraphModel dx="1426" dy="743" grid="1" gridSize="10" guides="1" tooltips="1" connect="1" arrows="1" fold="1" page="1" pageScale="1" pageWidth="827" pageHeight="1169" math="0" shadow="0">
      <root>
        <mxCell id="0" />
        <mxCell id="1" parent="0" />
        <mxCell id="3hWTwaV1ju-bGKuB5Aks-3" value="" style="edgeStyle=orthogonalEdgeStyle;rounded=0;orthogonalLoop=1;jettySize=auto;html=1;" edge="1" parent="1" source="3hWTwaV1ju-bGKuB5Aks-1" target="3hWTwaV1ju-bGKuB5Aks-2">
          <mxGeometry relative="1" as="geometry" />
        </mxCell>
        <mxCell id="3hWTwaV1ju-bGKuB5Aks-1" value="INICIO" style="ellipse;whiteSpace=wrap;html=1;" vertex="1" parent="1">
          <mxGeometry x="40" y="350" width="80" height="80" as="geometry" />
        </mxCell>
        <mxCell id="3hWTwaV1ju-bGKuB5Aks-5" value="" style="edgeStyle=orthogonalEdgeStyle;rounded=0;orthogonalLoop=1;jettySize=auto;html=1;" edge="1" parent="1" source="3hWTwaV1ju-bGKuB5Aks-2" target="3hWTwaV1ju-bGKuB5Aks-4">
          <mxGeometry relative="1" as="geometry" />
        </mxCell>
        <mxCell id="3hWTwaV1ju-bGKuB5Aks-2" value="Mostrar mensaje &#39;Ingresar palabra&#39;" style="shape=parallelogram;perimeter=parallelogramPerimeter;whiteSpace=wrap;html=1;fixedSize=1;" vertex="1" parent="1">
          <mxGeometry x="180" y="360" width="120" height="60" as="geometry" />
        </mxCell>
        <mxCell id="3hWTwaV1ju-bGKuB5Aks-7" value="" style="edgeStyle=orthogonalEdgeStyle;rounded=0;orthogonalLoop=1;jettySize=auto;html=1;" edge="1" parent="1" source="3hWTwaV1ju-bGKuB5Aks-4" target="3hWTwaV1ju-bGKuB5Aks-6">
          <mxGeometry relative="1" as="geometry" />
        </mxCell>
        <mxCell id="3hWTwaV1ju-bGKuB5Aks-4" value="CONTAR&amp;nbsp; LETRAS" style="whiteSpace=wrap;html=1;" vertex="1" parent="1">
          <mxGeometry x="380" y="360" width="120" height="60" as="geometry" />
        </mxCell>
        <mxCell id="3hWTwaV1ju-bGKuB5Aks-9" value="" style="edgeStyle=orthogonalEdgeStyle;rounded=0;orthogonalLoop=1;jettySize=auto;html=1;" edge="1" parent="1" source="3hWTwaV1ju-bGKuB5Aks-6" target="3hWTwaV1ju-bGKuB5Aks-8">
          <mxGeometry relative="1" as="geometry" />
        </mxCell>
        <mxCell id="3hWTwaV1ju-bGKuB5Aks-6" value="Mostrar mensaje &#39;Cantidad letras&#39;" style="shape=parallelogram;perimeter=parallelogramPerimeter;whiteSpace=wrap;html=1;fixedSize=1;" vertex="1" parent="1">
          <mxGeometry x="580" y="360" width="120" height="60" as="geometry" />
        </mxCell>
        <mxCell id="3hWTwaV1ju-bGKuB5Aks-8" value="FIN" style="ellipse;whiteSpace=wrap;html=1;" vertex="1" parent="1">
          <mxGeometry x="800" y="350" width="80" height="80" as="geometry" />
        </mxCell>
      </root>
    </mxGraphModel>
  </diagram>
</mxfile>
